:SAMPLES-PER-SECOND 24
:FULLY-SPECIFIED
:DEGREES
282
root  0.16963 38.8526 20.9256 13.6264 -70.3738 -6.55373
RightUpLeg  -12.5246 12.8758 -3.59847
RightLeg  27.4313 0.027987 -0.214491
RightFoot  -19.3638 0.117061 3.39132
RightToes  -2.08645e-008 3.77894e-005 6.81332e-007
Spine  -1.76325 0.699055 -2.68285
Spine1  8.84956 0.407625 1.99981
HEad  -43.9067 41.4076 -21.7311
LeftShoulder1  7.51544 -13.1939 -38.8659
LeftArm  -0.953984 10.0672 -30.3868
LeftForeArm  173.516 -63.4173 -160.673
LeftHand  -0.273402 -3.2708 3.90834
RightShoulder  4.24705 6.94426 34.7519
RightArm  10.2149 -22.2652 28.8876
RightForeArm  145.017 75.998 136.737
RightHand  -0.582281 7.83716 -5.46767
LeftUpLeg  -13.5428 -3.11166 18.8039
LeftLeg  25.6825 13.4942 7.28657
LeftFoot  -0.619035 1.51658 -16.1974
LeftToes  1.24767e-006 1.47042e-008 1.32732e-009
283
root  0.113556 40.2355 20.9942 11.3891 -70.3312 -3.24812
RightUpLeg  -11.3507 10.4486 -5.67265
RightLeg  21.5931 4.18815 1.66453
RightFoot  -10.7178 -0.106594 6.00161
RightToes  -2.08645e-008 3.77894e-005 6.81332e-007
Spine  -2.04817 0.46391 -2.91101
Spine1  8.03428 0.437284 0.924063
HEad  -44.2315 41.4795 -21.9414
LeftShoulder1  7.41674 -13.1362 -38.4474
LeftArm  1.62611 18.9012 -31.2356
LeftForeArm  170.81 -62.8705 -160.841
LeftHand  -0.272685 -3.54148 3.80265
RightShoulder  4.23089 6.90742 34.741
RightArm  9.67282 -27.361 29.4409
RightForeArm  149.896 74.4175 142.148
RightHand  -0.651319 7.8525 -6.06499
LeftUpLeg  -13.9264 0.932487 17.3233
LeftLeg  21.268 9.06157 4.20655
LeftFoot  10.6873 2.62297 -13.8584
LeftToes  1.24767e-006 1.47042e-008 1.32732e-009
284
root  0.056559 41.4273 21.1431 8.81409 -70.9044 0.560608
RightUpLeg  -10.2274 6.01453 -7.60534
RightLeg  15.5513 9.30283 1.83128
RightFoot  -3.35869 -0.875973 12.1821
RightToes  -2.08645e-008 3.77894e-005 6.81332e-007
Spine  -2.97568 0.964425 -3.34715
Spine1  7.31151 1.33353 -0.452219
HEad  -41.7151 41.23 -20.6155
LeftShoulder1  7.21319 -13.0587 -37.4652
LeftArm  4.31613 25.7869 -30.715
LeftForeArm  169.687 -63.445 -160.268
LeftHand  -0.165472 -3.66206 2.38105
RightShoulder  4.27545 6.95732 34.9697
RightArm  9.96863 -31.8225 28.015
RightForeArm  152.823 72.8859 146.065
RightHand  -0.54468 7.36403 -5.30625
LeftUpLeg  -14.3556 4.50029 15.5853
LeftLeg  17.7174 0.420161 0.502526
LeftFoot  18.8234 4.16871 -15.8226
LeftToes  1.24767e-006 1.47042e-008 1.32732e-009
285
root  0.00940636 42.0578 21.2795 5.71422 -71.634 4.91566
RightUpLeg  -10.7542 2.62777 -9.13256
RightLeg  13.6625 8.70161 0.71354
RightFoot  0.66512 -1.68058 16.028
RightToes  -2.08645e-008 3.77894e-005 6.81332e-007
Spine  -3.63844 1.53452 -4.21054
Spine1  6.00122 2.20105 -1.38638
HEad  -39.2333 41.5844 -19.7548
LeftShoulder1  7.01493 -12.9586 -36.5547
LeftArm  6.94148 30.7722 -28.3276
LeftForeArm  168.209 -63.3384 -160.206
LeftHand  -0.0856022 -3.75511 1.34841
RightShoulder  4.33998 7.07594 35.1188
RightArm  12.1978 -34.6429 25.0949
RightForeArm  154.203 71.3078 149.188
RightHand  -0.407566 6.43599 -4.33747
LeftUpLeg  -14.5146 6.3454 14.0517
LeftLeg  15.005 -3.83994 -0.669401
LeftFoot  20.4571 5.30297 -18.9339
LeftToes  1.24767e-006 1.47042e-008 1.32732e-009
286
root  0.0995685 42.1613 21.4393 4.76076 -71.5981 6.17613
RightUpLeg  -11.7618 4.60598 -9.97402
RightLeg  15.9456 1.50096 -0.206784
RightFoot  2.6505 -1.61598 13.3263
RightToes  -2.08645e-008 3.77894e-005 6.81332e-007
Spine  -3.51383 1.78665 -2.6581
Spine1  5.74726 2.84105 -3.53154
HEad  -39.1167 41.6679 -20.3368
LeftShoulder1  6.78541 -12.7448 -35.7218
LeftArm  8.79537 32.3562 -25.4591
LeftForeArm  167.596 -62.9921 -160.424
LeftHand  -0.0950774 -3.70743 1.47403
RightShoulder  4.21031 7.00005 34.1896
RightArm  14.6461 -35.0483 23.5464
RightForeArm  155.654 70.5228 150.662
RightHand  -0.346647 6.73471 -3.66054
LeftUpLeg  -14.5394 6.42715 13.8376
LeftLeg  13.0607 -1.13652 0.431466
LeftFoot  21.1343 4.61116 -16.231
LeftToes  1.24767e-006 1.47042e-008 1.32732e-009
287
root  0.266087 41.6089 21.5949 4.51988 -71.045 5.7123
RightUpLeg  -11.3822 6.4923 -9.9175
RightLeg  18.9494 -2.30574 -1.08853
RightFoot  -0.337478 -0.924427 9.46619
RightToes  -2.08645e-008 3.77894e-005 6.81332e-007
Spine  -2.38164 1.87043 -1.16134
Spine1  5.83661 3.04479 -4.5813
HEad  -39.2587 41.4207 -20.7853
LeftShoulder1  6.58652 -12.5536 -34.9983
LeftArm  8.04844 32.2012 -24.0662
LeftForeArm  168.024 -63.1155 -160.369
LeftHand  -0.0695979 -3.36343 1.16557
RightShoulder  4.02713 6.83001 33.0838
RightArm  16.2166 -33.3816 22.4653
RightForeArm  155.82 70.6601 150.48
RightHand  -0.357985 6.96863 -3.7101
LeftUpLeg  -14.5832 4.31076 14.4459
LeftLeg  13.5668 2.33724 1.71845
LeftFoot  21.3097 3.73361 -13.0901
LeftToes  1.24767e-006 1.47042e-008 1.32732e-009
288
root  0.417443 40.3526 21.7266 3.2317 -70.3797 6.20236
RightUpLeg  -11.0583 7.08702 -10.1316
RightLeg  22.6747 -2.9626 -1.57494
RightFoot  -9.78417 -0.186111 8.77729
RightToes  -2.08645e-008 3.77894e-005 6.81332e-007
Spine  -0.725177 1.5247 -1.16315
Spine1  4.98846 2.54101 -4.19652
HEad  -38.7433 42.0341 -20.6823
LeftShoulder1  6.4769 -12.3997 -34.7109
LeftArm  5.30503 31.446 -23.3307
LeftForeArm  166.302 -63.9004 -159.541
LeftHand  -0.097432 -3.16211 1.55946
RightShoulder  4.07902 6.91192 33.2754
RightArm  17.159 -29.5403 20.6345
RightForeArm  152.38 72.2938 147.148
RightHand  -0.4194 7.15912 -4.22854
LeftUpLeg  -14.9551 -0.120959 15.2929
LeftLeg  17.7124 5.01529 2.21239
LeftFoot  13.5183 3.70434 -17.0795
LeftToes  1.24767e-006 1.47042e-008 1.32732e-009
289
root  0.611258 38.8281 21.9711 3.44614 -70.3771 5.0688
RightUpLeg  -12.2706 7.26076 -10.0453
RightLeg  28.4996 -3.38463 -2.23222
RightFoot  -19.4157 0.452443 8.33261
RightToes  -2.08645e-008 3.77894e-005 6.81332e-007
Spine  0.157632 1.86645 -0.43187
Spine1  5.42441 2.64119 -3.04425
HEad  -38.7983 41.8889 -21.5593
LeftShoulder1  6.98598 -12.8015 -36.7855
LeftArm  2.15744 27.1453 -21.9056
LeftForeArm  163.934 -66.3155 -156.997
LeftHand  -0.278097 -2.54578 4.29268
RightShoulder  3.96696 6.7897 32.6525
RightArm  15.5673 -25.3722 20.8958
RightForeArm  144.982 75.6311 137.812
RightHand  -0.479968 7.66959 -4.62353
LeftUpLeg  -15.3527 -1.70911 15.6417
LeftLeg  23.4659 6.02456 3.19662
LeftFoot  -0.457968 2.1673 -22.1864
LeftToes  1.24767e-006 1.47042e-008 1.32732e-009
290
root  0.775267 37.8247 22.3139 5.23331 -71.1877 2.18147
RightUpLeg  -13.1832 8.36113 -9.32858
RightLeg  32.9732 -4.89874 -3.65783
RightFoot  -24.1838 0.662007 7.29518
RightToes  -2.08645e-008 3.77894e-005 6.81332e-007
Spine  -0.577998 2.56698 3.43425
Spine1  8.25551 3.96417 -5.67948
HEad  -39.9222 40.9494 -21.5448
LeftShoulder1  7.30757 -13.0293 -38.0876
LeftArm  -2.01224 21.341 -23.2699
LeftForeArm  165.632 -70.0413 -152.714
LeftHand  -0.418478 -1.74623 6.98413
RightShoulder  3.94109 6.70137 32.7343
RightArm  11.2776 -23.2465 23.6164
RightForeArm  131.12 78.6058 122.251
RightHand  -0.605221 7.43342 -5.83327
LeftUpLeg  -15.5908 -3.05769 15.8641
LeftLeg  28.2824 8.76758 5.43884
LeftFoot  -9.18552 0.479954 -21.7117
LeftToes  1.24767e-006 1.47042e-008 1.32732e-009
